<mxfile host="app.diagrams.net" modified="2023-11-22T10:48:34.380Z" agent="Mozilla/5.0 (Windows NT 10.0; Win64; x64) AppleWebKit/537.36 (KHTML, like Gecko) Chrome/119.0.0.0 Safari/537.36" etag="MnWvsJ88PRB0Usnj0FTS" version="22.1.3" type="github">
  <diagram name="Page-1" id="RIxV8ZQdtHmNmN-mOjKy">
    <mxGraphModel dx="2100" dy="1130" grid="1" gridSize="10" guides="1" tooltips="1" connect="1" arrows="1" fold="1" page="1" pageScale="1" pageWidth="850" pageHeight="1100" math="0" shadow="0">
      <root>
        <mxCell id="0" />
        <mxCell id="1" parent="0" />
        <mxCell id="L5eYhkyJ40Zqo-MPOjNk-6" style="edgeStyle=orthogonalEdgeStyle;rounded=0;orthogonalLoop=1;jettySize=auto;html=1;" edge="1" parent="1" source="L5eYhkyJ40Zqo-MPOjNk-3" target="L5eYhkyJ40Zqo-MPOjNk-4">
          <mxGeometry relative="1" as="geometry" />
        </mxCell>
        <mxCell id="L5eYhkyJ40Zqo-MPOjNk-3" value="Display results" style="ellipse;whiteSpace=wrap;html=1;" vertex="1" parent="1">
          <mxGeometry x="650" y="100" width="120" height="80" as="geometry" />
        </mxCell>
        <mxCell id="L5eYhkyJ40Zqo-MPOjNk-4" value="User" style="shape=umlActor;verticalLabelPosition=bottom;verticalAlign=top;html=1;outlineConnect=0;" vertex="1" parent="1">
          <mxGeometry x="160" y="220" width="50" height="100" as="geometry" />
        </mxCell>
        <mxCell id="L5eYhkyJ40Zqo-MPOjNk-17" style="edgeStyle=orthogonalEdgeStyle;rounded=0;orthogonalLoop=1;jettySize=auto;html=1;entryX=0.5;entryY=1;entryDx=0;entryDy=0;" edge="1" parent="1" source="L5eYhkyJ40Zqo-MPOjNk-7" target="L5eYhkyJ40Zqo-MPOjNk-14">
          <mxGeometry relative="1" as="geometry" />
        </mxCell>
        <mxCell id="L5eYhkyJ40Zqo-MPOjNk-7" value="Load face classifier from disk" style="ellipse;whiteSpace=wrap;html=1;" vertex="1" parent="1">
          <mxGeometry x="440" y="640" width="120" height="80" as="geometry" />
        </mxCell>
        <mxCell id="L5eYhkyJ40Zqo-MPOjNk-18" style="edgeStyle=orthogonalEdgeStyle;rounded=0;orthogonalLoop=1;jettySize=auto;html=1;entryX=0.5;entryY=0;entryDx=0;entryDy=0;" edge="1" parent="1" source="L5eYhkyJ40Zqo-MPOjNk-9" target="L5eYhkyJ40Zqo-MPOjNk-11">
          <mxGeometry relative="1" as="geometry" />
        </mxCell>
        <mxCell id="L5eYhkyJ40Zqo-MPOjNk-9" value="Detect face in image/video stream" style="ellipse;whiteSpace=wrap;html=1;" vertex="1" parent="1">
          <mxGeometry x="480" y="190" width="120" height="80" as="geometry" />
        </mxCell>
        <mxCell id="L5eYhkyJ40Zqo-MPOjNk-10" value="" style="endArrow=none;html=1;rounded=0;exitX=0.75;exitY=0.1;exitDx=0;exitDy=0;exitPerimeter=0;entryX=0;entryY=0.5;entryDx=0;entryDy=0;" edge="1" parent="1" source="L5eYhkyJ40Zqo-MPOjNk-4" target="L5eYhkyJ40Zqo-MPOjNk-9">
          <mxGeometry width="50" height="50" relative="1" as="geometry">
            <mxPoint x="210" y="220" as="sourcePoint" />
            <mxPoint x="450" y="190" as="targetPoint" />
          </mxGeometry>
        </mxCell>
        <mxCell id="L5eYhkyJ40Zqo-MPOjNk-11" value="Extract from face the region of interest" style="ellipse;whiteSpace=wrap;html=1;" vertex="1" parent="1">
          <mxGeometry x="460" y="340" width="120" height="80" as="geometry" />
        </mxCell>
        <mxCell id="L5eYhkyJ40Zqo-MPOjNk-16" style="edgeStyle=orthogonalEdgeStyle;rounded=0;orthogonalLoop=1;jettySize=auto;html=1;entryX=0.5;entryY=1;entryDx=0;entryDy=0;" edge="1" parent="1" source="L5eYhkyJ40Zqo-MPOjNk-14" target="L5eYhkyJ40Zqo-MPOjNk-3">
          <mxGeometry relative="1" as="geometry">
            <mxPoint x="740" y="310" as="targetPoint" />
          </mxGeometry>
        </mxCell>
        <mxCell id="L5eYhkyJ40Zqo-MPOjNk-14" value="Apply face classifier on the region of interest do determine the facial features" style="ellipse;whiteSpace=wrap;html=1;" vertex="1" parent="1">
          <mxGeometry x="410" y="470" width="190" height="120" as="geometry" />
        </mxCell>
        <mxCell id="L5eYhkyJ40Zqo-MPOjNk-15" style="edgeStyle=orthogonalEdgeStyle;rounded=0;orthogonalLoop=1;jettySize=auto;html=1;entryX=0.552;entryY=-0.028;entryDx=0;entryDy=0;entryPerimeter=0;" edge="1" parent="1" source="L5eYhkyJ40Zqo-MPOjNk-11" target="L5eYhkyJ40Zqo-MPOjNk-14">
          <mxGeometry relative="1" as="geometry" />
        </mxCell>
      </root>
    </mxGraphModel>
  </diagram>
</mxfile>
